<svg width="61" height="65" viewBox="0 0 61 65" fill="none" xmlns="http://www.w3.org/2000/svg">
<path d="M61 30.5C61 40.5488 56.1399 49.4623 48.6431 55.0195C45.5047 57.345 41.9045 59.0828 38.0054 60.0688C35.6041 60.6776 33.0906 61 30.5 61C27.9094 61 25.3947 60.6776 22.9933 60.0688C19.0943 59.0828 15.494 57.345 12.3556 55.0182C4.85879 49.461 0 40.5476 0 30.5C0 13.6553 13.6553 0 30.5 0C47.3447 0 61 13.6553 61 30.5Z" fill="#5ADAFD"/>
<path d="M48.6743 47.6734C48.5311 46.7136 48.3419 45.7251 48.1079 44.7143C47.9012 43.8267 47.661 42.9216 47.3884 42.0029C46.6713 39.5903 45.7265 37.0831 44.5812 34.5485C44.0795 33.4405 43.5392 32.3276 42.9628 31.2159C42.4549 30.2362 41.9196 29.2552 41.3556 28.2804C40.7929 27.3044 40.2128 26.3508 39.6165 25.4209C38.943 24.3665 38.2496 23.3432 37.54 22.3547C35.9191 20.0952 34.2199 18.0225 32.4882 16.1949C31.8297 15.499 31.1661 14.8392 30.5001 14.218C29.742 13.5084 28.9801 12.8499 28.2194 12.2461C23.2535 8.30353 18.808 7.11963 15.6995 8.91353C12.591 10.7086 11.3934 15.1504 12.3246 21.4235C12.4665 22.3833 12.657 23.3718 12.8923 24.3826C13.0965 25.2702 13.3367 26.1753 13.6106 27.094C14.3277 29.5066 15.2725 32.0151 16.4191 34.5484C16.9197 35.6564 17.4598 36.768 18.0362 37.8797C18.5441 38.8607 19.0807 39.8404 19.6434 40.8164C20.2061 41.7924 20.7862 42.746 21.3825 43.6759C22.0572 44.7316 22.7506 45.7549 23.459 46.7433C25.0799 49.0028 26.7791 51.0743 28.5108 52.9018C29.1694 53.5977 29.8341 54.2587 30.5001 54.8799C31.2582 55.5895 32.0201 56.2468 32.7795 56.8506C34.6058 58.3009 36.3611 59.3777 38.0056 60.0687C41.9046 59.0827 45.5049 57.3449 48.6432 55.0194C49.0813 53.0003 49.0975 50.5267 48.6743 47.6734ZM45.8782 54.5664C45.5159 56.1325 44.8499 57.2056 43.8976 57.7546C42.9465 58.3048 41.6842 58.3447 40.1467 57.8766C38.481 57.3674 36.5365 56.2545 34.5223 54.6548C33.8451 54.117 33.1666 53.5319 32.4881 52.9032C31.8233 52.2857 31.1585 51.6259 30.4988 50.9275C29.3659 49.7287 28.2455 48.4165 27.1525 47.0086C26.423 46.0687 25.7047 45.0865 25.0038 44.0669C23.9867 42.5892 23.0045 41.0331 22.0708 39.4147C21.1359 37.7963 20.2794 36.168 19.5088 34.5484C18.976 33.4317 18.4842 32.3188 18.0361 31.2171C17.3626 29.5664 16.7862 27.9393 16.3144 26.3595C16.0405 25.4383 15.8003 24.5345 15.5998 23.6494C15.3931 22.7481 15.2251 21.8667 15.0981 21.0115C14.7197 18.4682 14.7284 16.2275 15.1205 14.5307C15.4828 12.9645 16.15 11.8914 17.1011 11.3424C17.6152 11.0461 18.219 10.8967 18.9074 10.8967C19.495 10.8967 20.1448 11.005 20.8519 11.2216C22.5176 11.7295 24.4621 12.8437 26.4763 14.4422C27.1535 14.98 27.8332 15.5651 28.5105 16.1964C29.1765 16.8125 29.8401 17.4724 30.4986 18.1696C31.6327 19.3684 32.7531 20.6806 33.8474 22.0898C34.5769 23.0297 35.2952 24.0119 35.9961 25.0315C37.0119 26.5092 37.9942 28.0653 38.9278 29.6824C39.8627 31.3008 40.7192 32.9291 41.4898 34.5487C42.0226 35.6665 42.5144 36.7796 42.9625 37.8813C43.636 39.5319 44.2124 41.1579 44.6842 42.7375C44.9581 43.6587 45.1983 44.5625 45.4 45.4476C45.6054 46.3489 45.7735 47.2303 45.9005 48.0855C46.2791 50.6288 46.2704 52.8696 45.8782 54.5664Z" fill="#F2F2F2"/>
<path d="M50.9537 25.3725C50.0511 25.0165 49.1 24.6866 48.1066 24.3828C47.2352 24.1175 46.3315 23.8724 45.3989 23.6496C42.9514 23.0645 40.3073 22.6288 37.5399 22.3549C36.3311 22.2341 35.0974 22.1458 33.8475 22.0897C32.7445 22.0387 31.6266 22.0125 30.5 22.0125C29.3735 22.0125 28.2554 22.0385 27.1512 22.0897C25.9001 22.1456 24.6664 22.2354 23.4576 22.3549C20.6902 22.6288 18.0474 23.0645 15.5998 23.6496C14.6675 23.8724 13.7637 24.1177 12.8921 24.3828C11.8987 24.6853 10.9476 25.0165 10.045 25.3725C4.14805 27.7003 0.898849 30.9596 0.898849 34.5486C0.898849 38.1375 4.14805 41.3968 10.0452 43.726C10.9478 44.0819 11.8976 44.4118 12.8909 44.7157C13.7623 44.9809 14.6661 45.2261 15.5987 45.4477C18.0462 46.0339 20.6902 46.4685 23.459 46.7435C24.6678 46.863 25.9015 46.9514 27.1526 47.0088C28.2556 47.0597 29.3735 47.0846 30.5 47.0846C31.6266 47.0846 32.7433 47.0597 33.8463 47.0088C35.0974 46.9514 36.33 46.863 37.5399 46.7435C40.3073 46.4696 42.9527 46.0339 45.4002 45.4477C46.3326 45.2249 47.2364 44.9809 48.108 44.7145C49.1002 44.412 50.0513 44.0821 50.9537 43.726C56.852 41.3968 60.1001 38.1377 60.1001 34.5486C60.0999 30.9596 56.852 27.7003 50.9537 25.3725ZM55.5249 37.8574C54.2526 39.0463 52.3156 40.1729 49.9241 41.1178C49.1187 41.4352 48.2721 41.7315 47.3882 42.0029C46.5205 42.2707 45.618 42.5158 44.6843 42.7374C43.0796 43.1196 41.3828 43.4333 39.6163 43.6762C38.4386 43.8393 37.2298 43.97 35.9961 44.0659C34.2072 44.2091 32.3685 44.2813 30.4999 44.2813C28.6313 44.2813 26.7926 44.2091 25.0037 44.0672C23.77 43.9701 22.56 43.8394 21.3823 43.6763C19.6158 43.4335 17.919 43.1198 16.3143 42.7376C15.3806 42.516 14.4781 42.2708 13.6104 42.0031C12.7265 41.7317 11.88 41.4354 11.0745 41.118C8.68314 40.1731 6.74603 39.0465 5.47373 37.8576C4.29853 36.7608 3.70223 35.6479 3.70223 34.5487C3.70223 33.4495 4.29853 32.3365 5.47373 31.2398C6.74603 30.0509 8.68302 28.9243 11.0745 27.9794C11.8799 27.662 12.7265 27.3657 13.6104 27.0943C14.4781 26.8266 15.3806 26.5814 16.3143 26.3598C17.919 25.9776 19.6158 25.6639 21.3823 25.4211C22.56 25.258 23.77 25.1273 25.0037 25.0302C26.7926 24.8883 28.6313 24.8161 30.4999 24.8161C32.3685 24.8161 34.2072 24.8883 35.9961 25.0315C37.2298 25.1274 38.4386 25.2581 39.6163 25.4212C41.3828 25.664 43.0796 25.9777 44.6843 26.3599C45.618 26.5815 46.5205 26.8267 47.3882 27.0944C48.2721 27.3658 49.1186 27.6621 49.9241 27.9795C52.3155 28.9244 54.2526 30.051 55.5249 31.2399C56.7001 32.3367 57.2964 33.4496 57.2964 34.5488C57.2964 35.6479 56.7001 36.7608 55.5249 37.8574Z" fill="#F2F2F2"/>
<path d="M45.2993 8.91353C42.1908 7.11963 37.7453 8.30353 32.7794 12.2461C32.02 12.8499 31.2581 13.5084 30.5 14.218C29.834 14.8392 29.1692 15.5002 28.5107 16.1961C26.779 18.0236 25.0799 20.0951 23.4578 22.3546C22.7495 23.343 22.056 24.3664 21.3826 25.4208C20.7863 26.3507 20.2062 27.3043 19.6435 28.2803C19.0808 29.2563 18.5443 30.236 18.0363 31.217C17.4599 32.3287 16.9196 33.4416 16.4192 34.5483C15.2726 37.0829 14.3278 39.5901 13.6107 42.0027C13.3368 42.9227 13.0966 43.8277 12.8911 44.7153C12.6571 45.7262 12.4666 46.7134 12.3247 47.6732C11.9014 50.5253 11.9176 52.9989 12.3558 55.0181C15.4942 57.3448 19.0944 59.0827 22.9935 60.0687C24.638 59.3778 26.3933 58.3009 28.2196 56.8506C28.9802 56.2468 29.7421 55.5883 30.5003 54.8799C31.1663 54.2587 31.8299 53.5989 32.4884 52.903C34.2188 51.0755 35.9193 49.0027 37.5402 46.7432C38.2485 45.7547 38.942 44.7314 39.6167 43.6758C40.213 42.7459 40.7931 41.7923 41.3558 40.8163C41.9197 39.8415 42.455 38.8618 42.963 37.8808C43.5394 36.7691 44.0797 35.6562 44.5814 34.5482C45.7267 32.0148 46.6716 29.5064 47.3886 27.0938C47.6612 26.1751 47.9015 25.27 48.1069 24.3824C48.3422 23.3715 48.5314 22.3831 48.6746 21.4233C49.6054 15.1504 48.408 10.7086 45.2993 8.91353ZM44.6845 26.3595C44.2127 27.9393 43.6363 29.5651 42.9628 31.2158C42.5145 32.3175 42.0228 33.4305 41.4901 34.5484C40.7194 36.168 39.8629 37.7963 38.9281 39.4147C37.9943 41.0318 37.0121 42.5879 35.9964 44.0656C35.2943 45.0864 34.576 46.0686 33.8465 47.0085C32.7535 48.4165 31.6331 49.7286 30.499 50.9274C29.8405 51.6245 29.1769 52.2843 28.5109 52.9018C27.8337 53.5317 27.154 54.1168 26.4767 54.6546C24.4625 56.2543 22.5179 57.3672 20.8523 57.8764C19.3149 58.3445 18.0525 58.3046 17.1014 57.7544C16.1503 57.2054 15.483 56.1323 15.1208 54.5662C14.7287 52.8694 14.7199 50.6286 15.0984 48.0853C15.2254 47.2301 15.3934 46.3487 15.5988 45.4474C15.8005 44.5623 16.0407 43.6585 16.3146 42.7373C16.7864 41.1575 17.3628 39.5304 18.0363 37.8797C18.4845 36.778 18.9762 35.665 19.509 34.5484C20.2796 32.9288 21.1361 31.3005 22.071 29.6821C23.0047 28.0637 23.9869 26.5076 25.004 25.0299C25.7049 24.0103 26.4219 23.0281 27.1514 22.0895C28.2457 20.6803 29.3661 19.3682 30.4989 18.1693C31.1587 17.4709 31.8235 16.8111 32.4881 16.1949C33.1666 15.565 33.845 14.9799 34.5223 14.4421C36.5365 12.8437 38.4812 11.7295 40.1467 11.2215C40.8538 11.0049 41.5036 10.8966 42.0912 10.8966C42.7796 10.8966 43.3846 11.046 43.8975 11.3423C44.8498 11.8913 45.5159 12.9644 45.8781 14.5305C46.2702 16.2273 46.279 18.4681 45.9005 21.0114C45.7735 21.8666 45.6055 22.748 45.3988 23.6493C45.1985 24.5344 44.9582 25.4382 44.6845 26.3595Z" fill="#F2F2F2"/>
<path d="M30.5003 40.1119C33.5728 40.1119 36.0636 37.6211 36.0636 34.5485C36.0636 31.4759 33.5728 28.9851 30.5003 28.9851C27.4277 28.9851 24.9369 31.4759 24.9369 34.5485C24.9369 37.6211 27.4277 40.1119 30.5003 40.1119Z" fill="#F2F2F2"/>
</svg>
